# xmcd
#
# Track frame offsets:
#	150
#	9435
#	24465
#	37882
#	46079
#	58551
#	70393
#	80233
#	89983
#	106663
#
# Disc length: 1629 seconds
#
# Revision: 0
# Processed by: cddbd v1.5.2PL0 Copyright (c) Steve Scherf et al.
# Submitted via: audiograbber 1.83.01
#
DISCID=7a065b0a
DTITLE=My City Burning - Lone Wolves
DYEAR=2011
DGENRE=Hardcore
TTITLE0=Shred And Gone
TTITLE1=Nine Yards
TTITLE2=Rise Up
TTITLE3=Bottomfeeder
TTITLE4=The Hardest Part Is Letting Go
TTITLE5=Broken Thrones
TTITLE6=Misery Loves Alcohol
TTITLE7=Stronger
TTITLE8=This Is The End
TTITLE9=The Great Escape
EXTD=
EXTT0=
EXTT1=
EXTT2=
EXTT3=
EXTT4=
EXTT5=
EXTT6=
EXTT7=
EXTT8=
EXTT9=
PLAYORDER=
